<?xml version="1.0" standalone="no"?>
<!DOCTYPE svg PUBLIC "-//W3C//DTD SVG 20010904//EN"
 "http://www.w3.org/TR/2001/REC-SVG-20010904/DTD/svg10.dtd">
<svg version="1.0" xmlns="http://www.w3.org/2000/svg"
 width="435.000000pt" height="435.000000pt" viewBox="0 0 435.000000 435.000000"
 preserveAspectRatio="xMidYMid meet">

<g transform="translate(0.000000,435.000000) scale(0.100000,-0.100000)"
fill="#000000" stroke="none">
<path d="M1758 2505 c-172 -24 -441 -133 -577 -235 -113 -84 -235 -213 -317
-335 -110 -162 -136 -212 -178 -333 -20 -57 -36 -105 -36 -107 0 -2 15 1 33 6
29 9 146 29 267 46 28 4 71 23 115 51 111 71 113 72 132 72 10 0 42 -9 72 -21
30 -11 60 -18 68 -15 8 3 11 1 8 -4 -4 -6 7 -10 25 -10 17 0 59 -11 93 -24 34
-14 107 -34 162 -46 55 -12 137 -29 183 -39 45 -9 82 -14 82 -10 0 4 21 21 48
38 26 16 67 44 91 61 l43 31 78 -40 c132 -69 162 -88 151 -96 -22 -13 -51 -85
-51 -124 0 -51 13 -84 52 -134 37 -46 146 -120 166 -112 7 2 11 1 8 -4 -3 -4
56 -21 132 -36 120 -24 150 -26 247 -21 192 12 395 81 496 170 19 17 43 36 53
41 16 9 14 22 -29 170 -112 387 -341 675 -694 874 -289 163 -612 228 -923 186z"/>
</g>
</svg>
